<svg width="22" height="16" viewBox="0 0 22 16" fill="none" xmlns="http://www.w3.org/2000/svg">
<path d="M11 4.8172C10.1575 4.82276 9.3512 5.15988 8.75551 5.75556C8.15982 6.35125 7.8227 7.15758 7.81714 8C7.81714 9.74205 9.25789 11.1828 11 11.1828C12.7409 11.1828 14.1828 9.74205 14.1828 8C14.1828 6.25901 12.7409 4.8172 11 4.8172Z" fill="#767676"/>
<path d="M10.9999 0.573303C2.90178 0.573303 0.467991 7.59349 0.445711 7.66457L0.333252 7.99983L0.444651 8.33508C0.467991 8.40617 2.90178 15.4264 10.9999 15.4264C19.0981 15.4264 21.5318 8.40617 21.5541 8.33508L21.6666 7.99983L21.5552 7.66457C21.5318 7.59349 19.0981 0.573303 10.9999 0.573303ZM10.9999 13.3045C5.32284 13.3045 3.12352 9.22414 2.59093 7.99983C3.12564 6.77127 5.32602 2.69517 10.9999 2.69517C16.677 2.69517 18.8763 6.77551 19.4089 7.99983C18.8742 9.22839 16.6738 13.3045 10.9999 13.3045Z" fill="#767676"/>
</svg>
