<svg width="22" height="22" viewBox="0 0 22 22" fill="none" xmlns="http://www.w3.org/2000/svg">
<path d="M10.9996 18.4606C12.0087 18.4606 12.9303 18.3507 13.7708 18.1609L11.8967 16.2868C11.6055 16.3092 11.31 16.3273 10.9996 16.3273C5.29203 16.3273 3.08088 12.225 2.54543 10.9941C2.94749 10.0968 3.49052 9.26964 4.15392 8.54396L2.66276 7.05278C1.02226 8.83089 0.400412 10.6218 0.388679 10.657C0.315102 10.876 0.315102 11.1131 0.388679 11.3322C0.411078 11.4026 2.85795 18.4606 10.9996 18.4606ZM10.9996 3.5275C9.04021 3.5275 7.43065 3.94989 6.08881 4.57388L2.15397 0.640076L0.645739 2.14832L19.8453 21.348L21.3535 19.8398L17.8133 16.2996C20.6015 14.2185 21.5967 11.377 21.6116 11.3322C21.6852 11.1131 21.6852 10.876 21.6116 10.657C21.5882 10.5855 19.1413 3.5275 10.9996 3.5275ZM16.303 14.7892L13.871 12.3572C14.0737 11.9412 14.1996 11.4836 14.1996 10.9941C14.1996 9.24368 12.75 7.7941 10.9996 7.7941C10.51 7.7941 10.0525 7.91997 9.63753 8.1237L7.70904 6.19519C8.7677 5.8319 9.88041 5.6512 10.9996 5.6608C16.7072 5.6608 18.9184 9.76314 19.4538 10.9941C19.1317 11.7322 18.2101 13.4922 16.303 14.7892Z" fill="#767676"/>
</svg>
